<svg width="20" height="20" viewBox="0 0 20 20" fill="none" xmlns="http://www.w3.org/2000/svg">
<path d="M10 0C8.02219 0 6.08879 0.58649 4.4443 1.6853C2.79981 2.78412 1.51809 4.3459 0.761209 6.17316C0.00433284 8.00042 -0.1937 10.0111 0.192152 11.9509C0.578004 13.8907 1.53041 15.6725 2.92894 17.0711C4.32746 18.4696 6.10929 19.422 8.0491 19.8078C9.98891 20.1937 11.9996 19.9957 13.8268 19.2388C15.6541 18.4819 17.2159 17.2002 18.3147 15.5557C19.4135 13.9112 20 11.9778 20 10C19.9949 7.34939 18.9397 4.80881 17.0655 2.93455C15.1912 1.06028 12.6506 0.00508267 10 0ZM15.0385 5.97115L12.3365 11.9519C12.2533 12.125 12.1097 12.2618 11.9327 12.3365L6.22116 14.7885C6.12627 14.8261 6.02517 14.8457 5.92308 14.8462C5.71882 14.8453 5.52266 14.7661 5.375 14.625C5.2664 14.5164 5.19278 14.3778 5.16365 14.227C5.13452 14.0762 5.1512 13.9201 5.21154 13.7788L7.66346 8.06731C7.73819 7.89033 7.87496 7.74673 8.04808 7.66346L14.0192 4.95192C14.1618 4.89223 14.3189 4.87629 14.4705 4.90615C14.6222 4.93601 14.7615 5.01031 14.8708 5.1196C14.9801 5.22888 15.0544 5.36821 15.0842 5.51986C15.1141 5.6715 15.0982 5.82859 15.0385 5.97115Z" fill="#7F7F7F"/>
</svg>
