<svg width="29" height="29" viewBox="0 0 29 29" fill="none" xmlns="http://www.w3.org/2000/svg">
<path d="M29 26.4904L20.3502 17.8392C21.7442 15.9236 22.494 13.615 22.4917 11.2459C22.4917 5.04502 17.4467 0 11.2459 0C5.04502 0 0 5.04502 0 11.2459C0 17.4467 5.04502 22.4917 11.2459 22.4917C13.615 22.494 15.9236 21.7442 17.8392 20.3502L26.4904 29L29 26.4904ZM11.2459 18.9399C9.72393 18.9401 8.23613 18.4889 6.97062 17.6434C5.70512 16.798 4.71876 15.5962 4.13627 14.1901C3.55379 12.7841 3.40135 11.2369 3.69823 9.74417C3.99511 8.25146 4.72798 6.88032 5.80415 5.80415C6.88032 4.72798 8.25146 3.99511 9.74417 3.69823C11.2369 3.40135 12.7841 3.55379 14.1901 4.13627C15.5962 4.71876 16.798 5.70512 17.6434 6.97062C18.4889 8.23613 18.9401 9.72393 18.9399 11.2459C18.9375 13.2857 18.1261 15.2413 16.6837 16.6837C15.2413 18.1261 13.2857 18.9375 11.2459 18.9399Z" fill="#E5228E"/>
</svg>
